<svg xmlns="http://www.w3.org/2000/svg" viewBox="0 0 291.27 90" fill="none" role="img" aria-label="أسترابوست" dir="rtl">
  <g>
    <path transform="translate(0.000 59.054) scale(0.046000 -0.046000)" d="M424 -12Q317 -12 244.0 -0.5Q171 11 126.0 36.5Q81 62 61.5 103.5Q42 145 42 205Q42 285 83 384L160 361Q141 321 131.0 287.5Q121 254 121 225Q121 163 176.5 136.0Q232 109 358 109H498Q570 109 616.0 112.5Q662 116 688.5 125.5Q715 135 725.5 151.0Q736 167 736 192V344H823V192Q823 113 906 113H939V24L915 0Q772 0 746 116H741Q734 79 715.5 54.5Q697 30 660.5 15.0Q624 0 566.5 -6.0Q509 -12 424 -12ZM488 366Q465 366 451.5 380.0Q438 394 438 423Q438 453 451.5 466.5Q465 480 488 480H503Q526 480 540.0 466.5Q554 453 554 423Q554 394 540.0 380.0Q526 366 503 366ZM347 366Q324 366 310.5 380.0Q297 394 297 423Q297 453 310.5 466.5Q324 480 347 480H362Q385 480 399.0 466.5Q413 453 413 423Q413 394 399.0 380.0Q385 366 362 366Z" fill="currentColor"/>
    <path transform="translate(43.194 59.054) scale(0.046000 -0.046000)" d="M-24 89 0 113H20Q41 113 57.0 116.0Q73 119 85.0 127.0Q97 135 107.0 148.0Q117 161 127 181L168 264L243 226L197 137L204 133Q234 116 262.0 108.0Q290 100 319 100Q364 100 385.0 120.5Q406 141 406 192V264H493V192Q493 143 508.0 122.5Q523 102 555 102H570Q627 102 627 167Q627 199 618 259L609 312L695 325L703 273Q707 243 709.0 216.0Q711 189 711 167Q711 79 673.5 33.5Q636 -12 562 -12Q498 -12 463.0 17.0Q428 46 417 105H411Q394 -12 300 -12Q271 -12 240.5 -1.0Q210 10 168 35L141 51Q112 20 73.5 10.0Q35 0 -24 0Z" fill="currentColor"/>
    <path transform="translate(77.694 59.054) scale(0.046000 -0.046000)" d="M32 -127H90Q195 -127 254.0 -93.5Q313 -60 332 0H212Q131 0 86.5 44.0Q42 88 42 169Q42 217 56.5 259.0Q71 301 96.5 331.5Q122 362 157.0 380.0Q192 398 234 398Q322 398 371.5 323.0Q421 248 423 113H470V24L446 0H412Q387 -115 307.5 -177.5Q228 -240 94 -240H32ZM125 183Q125 146 148.0 129.5Q171 113 216 113H340V132Q340 201 308.0 242.5Q276 284 225 284Q179 284 152.0 256.0Q125 228 125 183Z" fill="currentColor"/>
    <path transform="translate(99.314 59.054) scale(0.046000 -0.046000)" d="M-24 89 0 113H21Q89 113 117.0 128.5Q145 144 145 185Q145 202 142.5 228.0Q140 254 133 297L117 384L204 398L217 311Q229 231 229 185Q229 91 178.0 45.5Q127 0 21 0H-24ZM137 -207Q114 -207 100.5 -193.0Q87 -179 87 -150Q87 -120 100.5 -106.5Q114 -93 137 -93H152Q175 -93 189.0 -106.5Q203 -120 203 -150Q203 -179 189.0 -193.0Q175 -207 152 -207Z" fill="currentColor"/>
    <path transform="translate(111.642 59.054) scale(0.046000 -0.046000)" d="M69 740H162V0H69Z" fill="currentColor"/>
    <path transform="translate(122.268 59.054) scale(0.046000 -0.046000)" d="M-60 -127H-22Q29 -127 63.0 -114.0Q97 -101 118.0 -77.5Q139 -54 148.0 -21.0Q157 12 157 53Q157 80 154.0 109.0Q151 138 146 167L125 288L211 304L223 231L394 259V344H481V185Q481 143 500.5 128.0Q520 113 565 113H598V24L573 0H568Q481 0 440.5 34.5Q400 69 395 149L238 123Q240 104 241.0 87.0Q242 70 242 54Q242 -8 227.5 -61.5Q213 -115 181.0 -155.0Q149 -195 99.0 -217.5Q49 -240 -21 -240H-60ZM498 446Q475 446 461.5 460.0Q448 474 448 503Q448 533 461.5 546.5Q475 560 498 560H513Q536 560 550.0 546.5Q564 533 564 503Q564 474 550.0 460.0Q536 446 513 446ZM357 446Q334 446 320.5 460.0Q307 474 307 503Q307 533 320.5 546.5Q334 560 357 560H372Q395 560 409.0 546.5Q423 533 423 503Q423 474 409.0 460.0Q395 446 372 446Z" fill="currentColor"/>
    <path transform="translate(149.776 59.054) scale(0.046000 -0.046000)" d="M-24 89 0 113H20Q41 113 57.0 116.0Q73 119 85.0 127.0Q97 135 107.0 148.0Q117 161 127 181L168 264L243 226L197 137L204 133Q234 116 262.0 108.0Q290 100 319 100Q364 100 385.0 120.5Q406 141 406 192V264H493V192Q493 143 508.0 122.5Q523 102 555 102H570Q627 102 627 167Q627 199 618 259L609 312L695 325L703 273Q707 243 709.0 216.0Q711 189 711 167Q711 79 673.5 33.5Q636 -12 562 -12Q498 -12 463.0 17.0Q428 46 417 105H411Q394 -12 300 -12Q271 -12 240.5 -1.0Q210 10 168 35L141 51Q112 20 73.5 10.0Q35 0 -24 0Z" fill="currentColor"/>
    <path transform="translate(184.276 59.054) scale(0.046000 -0.046000)" d="M73 618H167V0H73ZM10 767H49L50 772Q31 793 31 824Q31 864 59.0 890.5Q87 917 130 917Q156 917 181.0 905.5Q206 894 222 874L180 820Q157 843 130 843Q112 843 101.0 834.5Q90 826 90 813Q90 773 160 773H229V698H10Z" fill="currentColor"/>
  </g>
  <line x1="211.27" y1="22.0" x2="211.27" y2="68.0" stroke="currentColor" stroke-width="1" opacity="0.2"/>
  <g transform="translate(235.27 17.0)">
    <path d="M28.0 0 Q33.6 22.4 56 28.0 Q33.6 33.6 28.0 56 Q22.4 33.6 0 28.0 Q22.4 22.4 28.0 0 Z" fill="currentColor"/>
  </g>
</svg>
